<svg width="20" height="20" viewBox="0 0 20 20" fill="none" xmlns="http://www.w3.org/2000/svg">
<path d="M15.0257 13.8447L18.5946 17.4136L17.4161 18.5921L13.8472 15.0232C12.5639 16.0499 10.9365 16.6641 9.1665 16.6641C5.0265 16.6641 1.6665 13.3041 1.6665 9.16406C1.6665 5.02406 5.0265 1.66406 9.1665 1.66406C13.3065 1.66406 16.6665 5.02406 16.6665 9.16406C16.6665 10.9341 16.0523 12.5615 15.0257 13.8447ZM13.3538 13.2264C14.3728 12.1762 14.9998 10.7437 14.9998 9.16406C14.9998 5.94115 12.3894 3.33073 9.1665 3.33073C5.94359 3.33073 3.33317 5.94115 3.33317 9.16406C3.33317 12.387 5.94359 14.9974 9.1665 14.9974C10.7462 14.9974 12.1787 14.3703 13.2288 13.3513L13.3538 13.2264Z" fill="#555459"/>
</svg>
