<svg width="18" height="19" viewBox="0 0 18 19" fill="none" xmlns="http://www.w3.org/2000/svg">
<path d="M2.33757 12.3307V2.33073H0.670898V0.664062H3.1709C3.63114 0.664062 4.00423 1.03716 4.00423 1.4974V11.4974H14.3696L16.0362 4.83073H5.6709V3.16406H17.1036C17.5638 3.16406 17.9369 3.53716 17.9369 3.9974C17.9369 4.06553 17.9286 4.13341 17.912 4.19951L15.8287 12.5328C15.736 12.9038 15.4027 13.1641 15.0202 13.1641H3.1709C2.71066 13.1641 2.33757 12.791 2.33757 12.3307ZM4.00423 18.1641C3.08376 18.1641 2.33757 17.4179 2.33757 16.4974C2.33757 15.5769 3.08376 14.8307 4.00423 14.8307C4.92471 14.8307 5.6709 15.5769 5.6709 16.4974C5.6709 17.4179 4.92471 18.1641 4.00423 18.1641ZM14.0042 18.1641C13.0837 18.1641 12.3376 17.4179 12.3376 16.4974C12.3376 15.5769 13.0837 14.8307 14.0042 14.8307C14.9247 14.8307 15.6709 15.5769 15.6709 16.4974C15.6709 17.4179 14.9247 18.1641 14.0042 18.1641Z" fill="#262728"/>
</svg>
