<svg width="18" height="16" viewBox="0 0 18 16" fill="none" xmlns="http://www.w3.org/2000/svg">
<path d="M9.00067 1.77378C10.9582 0.0166672 13.9832 0.0750005 15.8687 1.96447C17.7543 3.85393 17.819 6.86417 16.0653 8.8275L8.99975 15.9042L1.93432 8.8275C0.180711 6.86417 0.246261 3.84918 2.13097 1.96447C4.01781 0.0776255 7.03749 0.0140589 9.00067 1.77378ZM14.689 3.14175C13.4398 1.88995 11.4228 1.83918 10.114 3.01406L9.00142 4.0127L7.88825 3.01484C6.57565 1.83831 4.56239 1.89007 3.30948 3.14298C2.06803 4.38443 2.0057 6.37275 3.14978 7.686L8.99975 13.5453L14.8499 7.686C15.9944 6.37225 15.9323 4.38771 14.689 3.14175Z" fill="#262728"/>
</svg>
