<svg width="14" height="19" viewBox="0 0 14 19" fill="none" xmlns="http://www.w3.org/2000/svg">
<path d="M0.333496 18.3359C0.333496 14.654 3.31826 11.6693 7.00016 11.6693C10.6821 11.6693 13.6668 14.654 13.6668 18.3359H12.0002C12.0002 15.5745 9.76158 13.3359 7.00016 13.3359C4.23874 13.3359 2.00016 15.5745 2.00016 18.3359H0.333496ZM7.00016 10.8359C4.23766 10.8359 2.00016 8.59844 2.00016 5.83594C2.00016 3.07344 4.23766 0.835938 7.00016 0.835938C9.76266 0.835938 12.0002 3.07344 12.0002 5.83594C12.0002 8.59844 9.76266 10.8359 7.00016 10.8359ZM7.00016 9.16927C8.84183 9.16927 10.3335 7.6776 10.3335 5.83594C10.3335 3.99427 8.84183 2.5026 7.00016 2.5026C5.1585 2.5026 3.66683 3.99427 3.66683 5.83594C3.66683 7.6776 5.1585 9.16927 7.00016 9.16927Z" fill="#262728"/>
</svg>
